<svg width="119" height="20" viewBox="0 0 119 20" fill="none" xmlns="http://www.w3.org/2000/svg">
<path d="M37.3286 16V6.20679H43.704V7.58704H38.8797V10.5316H43.1782V11.9118H38.8797V16H37.3286ZM46.4592 16.1577C45.9772 16.1577 45.5522 16.0745 45.1841 15.908C44.8248 15.7327 44.5444 15.4961 44.3428 15.1981C44.1412 14.8914 44.0405 14.5321 44.0405 14.1202C44.0405 13.7346 44.1237 13.3885 44.2902 13.0818C44.4655 12.775 44.7328 12.5165 45.0921 12.3062C45.4514 12.0959 45.9027 11.9469 46.446 11.8592L48.9174 11.4517V12.6217L46.7352 13.0029C46.3409 13.073 46.0517 13.2001 45.8677 13.3841C45.6836 13.5594 45.5916 13.7872 45.5916 14.0676C45.5916 14.3393 45.6924 14.5628 45.8939 14.7381C46.1043 14.9046 46.3716 14.9878 46.6958 14.9878C47.0989 14.9878 47.4495 14.9002 47.7474 14.7249C48.0541 14.5496 48.2908 14.3174 48.4573 14.0282C48.6238 13.7303 48.707 13.4016 48.707 13.0423V11.2151C48.707 10.8646 48.5756 10.5798 48.3127 10.3607C48.0585 10.1328 47.7168 10.0189 47.2873 10.0189C46.893 10.0189 46.5468 10.1241 46.2489 10.3344C45.9597 10.536 45.745 10.7989 45.6048 11.1231L44.3691 10.5053C44.5006 10.1547 44.7153 9.84803 45.0132 9.58512C45.3112 9.31345 45.6573 9.10313 46.0517 8.95415C46.4548 8.80517 46.8798 8.73068 47.3268 8.73068C47.8876 8.73068 48.3828 8.83584 48.8122 9.04617C49.2504 9.25649 49.5878 9.55007 49.8244 9.9269C50.0698 10.295 50.1924 10.7244 50.1924 11.2151V16H48.7728V14.7118L49.0751 14.7512C48.9086 15.0404 48.6939 15.2902 48.431 15.5005C48.1768 15.7108 47.8833 15.8729 47.5502 15.9869C47.226 16.1008 46.8623 16.1577 46.4592 16.1577ZM55.1104 16.1577C54.4006 16.1577 53.7696 15.9956 53.2175 15.6714C52.6742 15.3384 52.2404 14.8914 51.9161 14.3306C51.6006 13.7697 51.4429 13.1343 51.4429 12.4245C51.4429 11.7234 51.6006 11.0924 51.9161 10.5316C52.2316 9.97072 52.6654 9.53254 53.2175 9.21705C53.7696 8.89281 54.4006 8.73068 55.1104 8.73068C55.5924 8.73068 56.0437 8.81832 56.4644 8.99358C56.885 9.16009 57.2487 9.39232 57.5554 9.69028C57.8709 9.98824 58.1031 10.3344 58.2521 10.7288L56.9507 11.3334C56.8018 10.9654 56.5608 10.6718 56.2278 10.4527C55.9035 10.2249 55.5311 10.1109 55.1104 10.1109C54.7073 10.1109 54.3436 10.2117 54.0194 10.4133C53.7039 10.6061 53.4541 10.8821 53.2701 11.2414C53.086 11.592 52.994 11.9907 52.994 12.4376C52.994 12.8846 53.086 13.2877 53.2701 13.647C53.4541 13.9975 53.7039 14.2736 54.0194 14.4752C54.3436 14.6767 54.7073 14.7775 55.1104 14.7775C55.5398 14.7775 55.9123 14.6679 56.2278 14.4489C56.552 14.221 56.793 13.9187 56.9507 13.5418L58.2521 14.1597C58.1119 14.5365 57.8841 14.8783 57.5686 15.185C57.2618 15.483 56.8982 15.7196 56.4775 15.8948C56.0569 16.0701 55.6012 16.1577 55.1104 16.1577ZM62.8457 16.1577C62.1358 16.1577 61.5048 15.9956 60.9527 15.6714C60.4094 15.3384 59.9844 14.8914 59.6777 14.3306C59.3709 13.7609 59.2176 13.1256 59.2176 12.4245C59.2176 11.7059 59.3709 11.0705 59.6777 10.5184C59.9931 9.96633 60.4138 9.53254 60.9396 9.21705C61.4654 8.89281 62.0613 8.73068 62.7274 8.73068C63.2619 8.73068 63.7395 8.8227 64.1602 9.00673C64.5808 9.19076 64.9358 9.44491 65.225 9.76915C65.5141 10.0846 65.7332 10.4483 65.8822 10.8602C66.04 11.2721 66.1188 11.7103 66.1188 12.1747C66.1188 12.2887 66.1144 12.407 66.1057 12.5297C66.0969 12.6523 66.0794 12.7663 66.0531 12.8714H60.3875V11.6884H65.2118L64.502 12.2273C64.5896 11.7979 64.5589 11.4167 64.4099 11.0837C64.2697 10.7419 64.0506 10.4746 63.7527 10.2818C63.4635 10.0803 63.1217 9.97948 62.7274 9.97948C62.333 9.97948 61.9825 10.0803 61.6757 10.2818C61.369 10.4746 61.1324 10.755 60.9659 11.1231C60.7994 11.4824 60.7337 11.9206 60.7687 12.4376C60.7249 12.9196 60.7906 13.3403 60.9659 13.6996C61.1499 14.0589 61.4041 14.3393 61.7283 14.5409C62.0613 14.7424 62.4382 14.8432 62.8588 14.8432C63.2882 14.8432 63.6519 14.7468 63.9499 14.554C64.2566 14.3612 64.4976 14.1115 64.6729 13.8047L65.8822 14.3963C65.742 14.7293 65.5229 15.0316 65.225 15.3033C64.9358 15.5662 64.5852 15.7765 64.1733 15.9343C63.7702 16.0833 63.3277 16.1577 62.8457 16.1577ZM70.4473 16.0789C69.7024 16.0789 69.124 15.8685 68.7121 15.4479C68.3003 15.0273 68.0943 14.4357 68.0943 13.6733V10.2292H66.8455V8.88842H67.0427C67.3757 8.88842 67.6342 8.79203 67.8183 8.59923C68.0023 8.40643 68.0943 8.14353 68.0943 7.81051V7.25841H69.5797V8.88842H71.1966V10.2292H69.5797V13.6076C69.5797 13.8529 69.6192 14.0633 69.698 14.2385C69.7769 14.405 69.904 14.5365 70.0792 14.6329C70.2545 14.7205 70.4824 14.7643 70.7628 14.7643C70.8329 14.7643 70.9118 14.76 70.9994 14.7512C71.087 14.7424 71.1703 14.7337 71.2492 14.7249V16C71.1265 16.0175 70.9906 16.0351 70.8417 16.0526C70.6927 16.0701 70.5612 16.0789 70.4473 16.0789ZM75.1306 16.1577C74.4032 16.1577 73.7635 15.9781 73.2114 15.6188C72.6681 15.2595 72.2869 14.7775 72.0678 14.1728L73.2114 13.6339C73.4042 14.037 73.6671 14.3568 74.0001 14.5935C74.3419 14.8301 74.7187 14.9484 75.1306 14.9484C75.4812 14.9484 75.766 14.8695 75.9851 14.7118C76.2041 14.554 76.3137 14.3393 76.3137 14.0676C76.3137 13.8924 76.2655 13.7522 76.1691 13.647C76.0727 13.5331 75.95 13.4411 75.801 13.371C75.6608 13.3008 75.5162 13.2483 75.3672 13.2132L74.2499 12.8977C73.6364 12.7225 73.1764 12.4595 72.8696 12.109C72.5717 11.7497 72.4227 11.3334 72.4227 10.8602C72.4227 10.4308 72.5322 10.0584 72.7513 9.74286C72.9704 9.41862 73.2727 9.16886 73.6583 8.99358C74.0439 8.81832 74.4777 8.73068 74.9597 8.73068C75.6082 8.73068 76.1866 8.89281 76.6949 9.21705C77.2032 9.53254 77.5625 9.9751 77.7728 10.5447L76.6292 11.0837C76.489 10.7419 76.2655 10.4702 75.9588 10.2687C75.6608 10.0671 75.3234 9.96633 74.9466 9.96633C74.6223 9.96633 74.3638 10.0452 74.171 10.2029C73.9782 10.3519 73.8818 10.5491 73.8818 10.7945C73.8818 10.961 73.9256 11.1012 74.0133 11.2151C74.1009 11.3203 74.2148 11.4079 74.355 11.478C74.4953 11.5394 74.6399 11.592 74.7888 11.6358L75.9456 11.9776C76.5328 12.1441 76.9841 12.407 77.2996 12.7663C77.6151 13.1168 77.7728 13.5375 77.7728 14.0282C77.7728 14.4489 77.6589 14.8213 77.431 15.1456C77.2119 15.461 76.9052 15.7108 76.5109 15.8948C76.1165 16.0701 75.6564 16.1577 75.1306 16.1577ZM79.6883 16V14.2911H81.2V16H79.6883Z" fill="#645DF6"/>
<path d="M86.7694 16.1577C86.0595 16.1577 85.4286 15.9956 84.8765 15.6714C84.3331 15.3384 83.8993 14.8914 83.5751 14.3306C83.2596 13.7697 83.1019 13.1343 83.1019 12.4245C83.1019 11.7234 83.2596 11.0924 83.5751 10.5316C83.8906 9.97072 84.3244 9.53254 84.8765 9.21705C85.4286 8.89281 86.0595 8.73068 86.7694 8.73068C87.2514 8.73068 87.7027 8.81832 88.1233 8.99358C88.544 9.16009 88.9077 9.39232 89.2144 9.69028C89.5299 9.98824 89.7621 10.3344 89.9111 10.7288L88.6097 11.3334C88.4607 10.9654 88.2197 10.6718 87.8867 10.4527C87.5625 10.2249 87.19 10.1109 86.7694 10.1109C86.3663 10.1109 86.0026 10.2117 85.6783 10.4133C85.3628 10.6061 85.1131 10.8821 84.9291 11.2414C84.745 11.592 84.653 11.9907 84.653 12.4376C84.653 12.8846 84.745 13.2877 84.9291 13.647C85.1131 13.9975 85.3628 14.2736 85.6783 14.4752C86.0026 14.6767 86.3663 14.7775 86.7694 14.7775C87.1988 14.7775 87.5712 14.6679 87.8867 14.4489C88.211 14.221 88.452 13.9187 88.6097 13.5418L89.9111 14.1597C89.7709 14.5365 89.543 14.8783 89.2276 15.185C88.9208 15.483 88.5571 15.7196 88.1365 15.8948C87.7158 16.0701 87.2601 16.1577 86.7694 16.1577ZM91.1658 16V6.04905H92.6512V16H91.1658ZM97.6216 16.1577C96.9381 16.1577 96.3115 15.9956 95.7418 15.6714C95.181 15.3471 94.734 14.9046 94.401 14.3437C94.068 13.7828 93.9015 13.1475 93.9015 12.4376C93.9015 11.719 94.068 11.0837 94.401 10.5316C94.734 9.97072 95.181 9.53254 95.7418 9.21705C96.3027 8.89281 96.9293 8.73068 97.6216 8.73068C98.3227 8.73068 98.9493 8.89281 99.5014 9.21705C100.062 9.53254 100.505 9.97072 100.829 10.5316C101.162 11.0837 101.329 11.719 101.329 12.4376C101.329 13.1562 101.162 13.796 100.829 14.3568C100.496 14.9177 100.049 15.3603 99.4882 15.6845C98.9274 16 98.3052 16.1577 97.6216 16.1577ZM97.6216 14.7775C98.0423 14.7775 98.4147 14.6767 98.739 14.4752C99.0632 14.2736 99.3173 13.9975 99.5014 13.647C99.6942 13.2877 99.7906 12.8846 99.7906 12.4376C99.7906 11.9907 99.6942 11.592 99.5014 11.2414C99.3173 10.8909 99.0632 10.6148 98.739 10.4133C98.4147 10.2117 98.0423 10.1109 97.6216 10.1109C97.2097 10.1109 96.8373 10.2117 96.5043 10.4133C96.18 10.6148 95.9215 10.8909 95.7287 11.2414C95.5447 11.592 95.4526 11.9907 95.4526 12.4376C95.4526 12.8846 95.5447 13.2877 95.7287 13.647C95.9215 13.9975 96.18 14.2736 96.5043 14.4752C96.8373 14.6767 97.2097 14.7775 97.6216 14.7775ZM105.119 16.1577C104.584 16.1577 104.115 16.0394 103.712 15.8028C103.309 15.5574 102.993 15.22 102.766 14.7906C102.547 14.3525 102.437 13.8486 102.437 13.2789V8.88842H103.922V13.1475C103.922 13.4717 103.988 13.7565 104.12 14.0019C104.251 14.2473 104.435 14.4401 104.672 14.5803C104.908 14.7118 105.18 14.7775 105.487 14.7775C105.802 14.7775 106.078 14.7074 106.315 14.5672C106.551 14.427 106.735 14.2298 106.867 13.9756C107.007 13.7215 107.077 13.4235 107.077 13.0818V8.88842H108.55V16H107.143V14.6066L107.301 14.7906C107.134 15.2288 106.858 15.5662 106.473 15.8028C106.087 16.0394 105.636 16.1577 105.119 16.1577ZM113.373 16.1577C112.689 16.1577 112.076 15.9956 111.533 15.6714C110.998 15.3384 110.573 14.8914 110.258 14.3306C109.951 13.7697 109.797 13.1387 109.797 12.4376C109.797 11.7366 109.955 11.1056 110.271 10.5447C110.586 9.98386 111.011 9.5413 111.546 9.21705C112.08 8.89281 112.685 8.73068 113.36 8.73068C113.929 8.73068 114.433 8.84461 114.872 9.07246C115.31 9.30031 115.656 9.61579 115.91 10.0189L115.687 10.3607V6.04905H117.159V16H115.752V14.554L115.923 14.8301C115.678 15.2595 115.327 15.5881 114.872 15.816C114.416 16.0438 113.916 16.1577 113.373 16.1577ZM113.518 14.7775C113.929 14.7775 114.298 14.6767 114.622 14.4752C114.955 14.2736 115.213 13.9975 115.397 13.647C115.59 13.2877 115.687 12.8846 115.687 12.4376C115.687 11.9907 115.59 11.592 115.397 11.2414C115.213 10.8909 114.955 10.6148 114.622 10.4133C114.298 10.2117 113.929 10.1109 113.518 10.1109C113.106 10.1109 112.733 10.2117 112.4 10.4133C112.067 10.6148 111.809 10.8909 111.625 11.2414C111.441 11.592 111.349 11.9907 111.349 12.4376C111.349 12.8846 111.441 13.2877 111.625 13.647C111.809 13.9975 112.063 14.2736 112.387 14.4752C112.72 14.6767 113.097 14.7775 113.518 14.7775Z" fill="#00C2BB"/>
<path d="M15.8331 19.9996V0L0 19.9996H15.8331Z" fill="#00C2BB"/>
<path d="M33.5 8.67844e-05H17.6669V5H29.5417L33.5 8.67844e-05Z" fill="#645DF6"/>
<path d="M17.7501 14.0001V20L22.5 14.0001H17.7501Z" fill="#645DF6"/>
<path d="M28.082 7.00009H17.7905V12H24.1238L28.082 7.00009Z" fill="#00C2BB"/>
</svg>
